<?xml version="1.0" standalone="no"?>
<!DOCTYPE svg PUBLIC "-//W3C//DTD SVG 1.1//EN"
  "http://www.w3.org/Graphics/SVG/1.1/DTD/svg11.dtd">
<svg width="502mm" height="262mm" viewBox="-251 -111 502 262" xmlns="http://www.w3.org/2000/svg" version="1.1">
	<title>svgOutput</title>
	<desc>made with tinkercad</desc>
<path d="M 199.9980010986328 -110 L 199.9980010986328 -84.99800109863281 L 219.70199584960938 -84.99800109863281 L 227.9980010986328 -84.99800109863281 L 237.4980010986328 -84.99800109863281 L 243.0030059814453 -84.99800109863281 L 250 -84.99800109863281 L 250 -42.16400146484375 L 250 -20.003000259399414 L 243.0030059814453 -20.003000259399414 L 237.4980010986328 -20.003000259399414 L 227.9980010986328 -20.003000259399414 L 219.70199584960938 -20.003000259399414 L 212.99200439453125 -20.003000259399414 L 211.82962036132812 -20.003000259399414 L 209.6999969482422 -20.003000259399414 L 209.69700622558594 -20.003000259399414 L 209.69700622558594 -20.002525329589844 L 206.60899353027344 -19.51300048828125 L 203.82000732421875 -18.091999053955078 L 201.60699462890625 -15.878999710083008 L 200.18699645996094 -13.090999603271484 L 199.69700622558594 -10 L 200.18699645996094 -6.908999919891357 L 201.60699462890625 -4.120999813079834 L 203.82000732421875 -1.9079999923706055 L 206.60899353027344 -0.4869999885559081 L 209.68736267089844 1.1102230246251565e-16 L 209.69700622558594 0.0015253963647411384 L 209.69700622558594 0.0020000000949950136 L 209.6999969482422 0.0020000000949950136 L 219.70199584960938 0.0020000000949950136 L 227.9980010986328 0.0020000000949950136 L 237.4980010986328 0.0020000000949950136 L 243.0030059814453 0.0020000000949950136 L 250 0.0020000000949950136 L 250 87.50299835205078 L 250 127.99800109863281 L 237.4980010986328 127.99800109863281 L 227.9980010986328 127.99800109863281 L 227.9980010986328 142.5030059814453 L 227.9980010986328 150 L -2.753000020980835 150 L -126.25299835205078 150 L -218.70199584960938 150 L -227.9980010986328 150 L -227.9980010986328 127.99800109863281 L -242.7530059814453 127.99800109863281 L -250 127.99800109863281 L -250 0.0020000000949950136 L -242.7530059814453 0.0020000000949950136 L -237.2480010986328 0.0020000000949950136 L -227.9980010986328 0.0020000000949950136 L -218.70199584960938 0.0020000000949950136 L -208.6999969482422 0.0020000000949950136 L -208.69700622558594 0.0020000000949950136 L -208.69700622558594 0.0015253963647411384 L -208.68736267089844 1.1102230246251565e-16 L -205.60899353027344 -0.4869999885559081 L -202.82000732421875 -1.9079999923706055 L -200.60699462890625 -4.120999813079834 L -199.18699645996094 -6.908999919891357 L -198.69700622558594 -10 L -199.18699645996094 -13.090999603271484 L -200.60699462890625 -15.878999710083008 L -202.82000732421875 -18.091999053955078 L -205.60899353027344 -19.51300048828125 L -208.69700622558594 -20.002525329589844 L -208.69700622558594 -20.003000259399414 L -208.6999969482422 -20.003000259399414 L -210.82962036132812 -20.003000259399414 L -212.99200439453125 -20.003000259399414 L -218.70199584960938 -20.003000259399414 L -227.9980010986328 -20.003000259399414 L -237.2480010986328 -20.003000259399414 L -242.7530059814453 -20.003000259399414 L -250 -20.003000259399414 L -250 -84.99800109863281 L -242.7530059814453 -84.99800109863281 L -237.2480010986328 -84.99800109863281 L -227.9980010986328 -84.99800109863281 L -218.70199584960938 -84.99800109863281 L -199.9980010986328 -84.99800109863281 L -199.9980010986328 -110 L -198.69700622558594 -110 L -126.25299835205078 -110 L -120.74800109863281 -110 L -2.753000020980835 -110 L 2.753000020980835 -110 L 121.24800109863281 -110 L 126.75299835205078 -110 L 199.69700622558594 -110 L 199.9980010986328 -110 M -126.1759033203125 139.26400756835938 L -126.25299835205078 139.75 L -126.11799621582031 140.6009979248047 L -125.72699737548828 141.3679962158203 L -125.11799621582031 141.9770050048828 L -124.35099792480469 142.3679962158203 L -123.5 142.5030059814453 L -122.64900207519531 142.3679962158203 L -121.88200378417969 141.9770050048828 L -121.27300262451172 141.3679962158203 L -120.88200378417969 140.6009979248047 L -120.74800109863281 139.75 L -120.82452392578125 139.26400756835938 L -120.88200378417969 138.8990020751953 L -121.27300262451172 138.1320037841797 L -121.88200378417969 137.5229949951172 L -122.64900207519531 137.1320037841797 L -123.5 136.9980010986328 L -124.35099792480469 137.1320037841797 L -125.11799621582031 137.5229949951172 L -125.72699737548828 138.1320037841797 L -126.11799621582031 138.8990020751953 L -126.1759033203125 139.26400756835938 M -237.7729949951172 -43.395999908447266 L -237.5679931640625 -43.774017333984375 L -237.3820037841797 -44.117000579833984 L -237.2480010986328 -44.91600036621094 L -237.3820037841797 -45.71500015258789 L -237.5679931640625 -46.0579833984375 L -237.7729949951172 -46.43600082397461 L -238.3820037841797 -47.00899887084961 L -239.1490020751953 -47.375999450683594 L -240 -47.50299835205078 L -240.8509979248047 -47.375999450683594 L -241.6179962158203 -47.00899887084961 L -241.66400146484375 -46.96571731567383 L -242.2270050048828 -46.43600082397461 L -242.6179962158203 -45.71500015258789 L -242.7530059814453 -44.91600036621094 L -242.6179962158203 -44.117000579833984 L -242.2270050048828 -43.395999908447266 L -241.66400146484375 -42.86720657348633 L -241.6179962158203 -42.82400131225586 L -240.8509979248047 -42.45600128173828 L -240 -42.33000183105469 L -239.1490020751953 -42.45600128173828 L -238.3820037841797 -42.82400131225586 L -237.7729949951172 -43.395999908447266 M 239.3990020751953 -42.29800033569336 L 240.25 -42.16400146484375 L 241.1009979248047 -42.29800033569336 L 241.8679962158203 -42.68899917602539 L 242.4770050048828 -43.29800033569336 L 242.8679962158203 -44.066001892089844 L 243.0030059814453 -44.91600036621094 L 242.9807891845703 -45.055999755859375 L 242.8679962158203 -45.766998291015625 L 242.4770050048828 -46.534000396728516 L 241.8679962158203 -47.143001556396484 L 241.1009979248047 -47.534000396728516 L 240.25 -47.66899871826172 L 239.3990020751953 -47.534000396728516 L 238.6320037841797 -47.143001556396484 L 238.0229949951172 -46.534000396728516 L 237.6320037841797 -45.766998291015625 L 237.52005004882812 -45.055999755859375 L 237.4980010986328 -44.91600036621094 L 237.6320037841797 -44.066001892089844 L 238.0229949951172 -43.29800033569336 L 238.6320037841797 -42.68899917602539 L 239.3990020751953 -42.29800033569336 M -237.3820037841797 85.60099792480469 L -237.2480010986328 84.75 L -237.3820037841797 83.89900207519531 L -237.7729949951172 83.13200378417969 L -238.3820037841797 82.52300262451172 L -239.1490020751953 82.13200378417969 L -240 81.99800109863281 L -240.8509979248047 82.13200378417969 L -241.6179962158203 82.52300262451172 L -242.2270050048828 83.13200378417969 L -242.6179962158203 83.89900207519531 L -242.7530059814453 84.75 L -242.6179962158203 85.60099792480469 L -242.4064483642578 86.01599884033203 L -242.2270050048828 86.36799621582031 L -241.6179962158203 86.97699737548828 L -240.8509979248047 87.36799621582031 L -240 87.50299835205078 L -239.1490020751953 87.36799621582031 L -238.3820037841797 86.97699737548828 L -237.7729949951172 86.36799621582031 L -237.5935516357422 86.01599884033203 L -237.3820037841797 85.60099792480469 M 239.3990020751953 87.36799621582031 L 240.25 87.50299835205078 L 241.1009979248047 87.36799621582031 L 241.8679962158203 86.97699737548828 L 242.4770050048828 86.36799621582031 L 242.6564483642578 86.01599884033203 L 242.8679962158203 85.60099792480469 L 243.0030059814453 84.75 L 242.8679962158203 83.89900207519531 L 242.4770050048828 83.13200378417969 L 241.8679962158203 82.52300262451172 L 241.1009979248047 82.13200378417969 L 240.25 81.99800109863281 L 239.3990020751953 82.13200378417969 L 238.6320037841797 82.52300262451172 L 238.0229949951172 83.13200378417969 L 237.6320037841797 83.89900207519531 L 237.4980010986328 84.75 L 237.6320037841797 85.60099792480469 L 237.8435516357422 86.01599884033203 L 238.0229949951172 86.36799621582031 L 238.6320037841797 86.97699737548828 L 239.3990020751953 87.36799621582031 M 123.14900207519531 142.3679962158203 L 124 142.5030059814453 L 124.85099792480469 142.3679962158203 L 125.61799621582031 141.9770050048828 L 126.22699737548828 141.3679962158203 L 126.61799621582031 140.6009979248047 L 126.75299835205078 139.75 L 126.6759033203125 139.26400756835938 L 126.61799621582031 138.8990020751953 L 126.22699737548828 138.1320037841797 L 125.61799621582031 137.5229949951172 L 124.85099792480469 137.1320037841797 L 124 136.9980010986328 L 123.14900207519531 137.1320037841797 L 122.38200378417969 137.5229949951172 L 121.77300262451172 138.1320037841797 L 121.38200378417969 138.8990020751953 L 121.32452392578125 139.26400756835938 L 121.24800109863281 139.75 L 121.38200378417969 140.6009979248047 L 121.77300262451172 141.3679962158203 L 122.38200378417969 141.9770050048828 L 123.14900207519531 142.3679962158203 M -0.8510000109672546 142.3679962158203 L 0 142.5030059814453 L 0.8510000109672546 142.3679962158203 L 1.6180000305175781 141.9770050048828 L 2.2269999980926514 141.3679962158203 L 2.618000030517578 140.6009979248047 L 2.753000020980835 139.75 L 2.618000030517578 138.8990020751953 L 2.2269999980926514 138.1320037841797 L 1.6180000305175781 137.5229949951172 L 0.8510000109672546 137.1320037841797 L 0 136.9980010986328 L -0.8510000109672546 137.1320037841797 L -1.6180000305175781 137.5229949951172 L -2.2269999980926514 138.1320037841797 L -2.618000030517578 138.8990020751953 L -2.753000020980835 139.75 L -2.618000030517578 140.6009979248047 L -2.2269999980926514 141.3679962158203 L -1.6180000305175781 141.9770050048828 L -0.8510000109672546 142.3679962158203 z" fill="none" stroke="rgb(255,0,0)" stroke-width="0.001mm" />
</svg>